# xmcd
#
# Track frame offsets:
# 150
# 12292
# 22922
# 36221
# 52012
# 63775
# 75304
# 94660
# 107774
# 119998
# 134437
# 146865
# 161093
# 182112
# 193150
# 212075
# 229627
# 248456
# 266908
#
# Disc length: 3792 seconds
#
# Revision: 0
# Processed by: cddbd v1.5.1PL0 Copyright (c) Steve Scherf et al.
# Submitted via: plextools 2.19a
#
DISCID=0e0ece13
DTITLE=Creedence Learwater Revival - Best of
DYEAR=1900
DGENRE=R&B
TTITLE0=Have you ever seen the rain
TTITLE1=Bad moon rising
TTITLE2=Cotton fields
TTITLE3=Long as I can see the light
TTITLE4=Lookin' out my backdoor
TTITLE5=Green River
TTITLE6=The midnight special
TTITLE7=Seet hitch-hiker
TTITLE8=Hey tonight
TTITLE9=Night time is the right time
TTITLE10=Down on the corner
TTITLE11=Proud Mary
TTITLE12=Susie-Q
TTITLE13=Who'll stop the rain
TTITLE14=Some days never comes
TTITLE15=Liquido - Narcotic
TTITLE16=Blondie - Maria
TTITLE17=Cher - Strong enough
TTITLE18=Britney Spears - Baby one more time
EXTD=
EXTT0=
EXTT1=
EXTT2=
EXTT3=
EXTT4=
EXTT5=
EXTT6=
EXTT7=
EXTT8=
EXTT9=
EXTT10=
EXTT11=
EXTT12=
EXTT13=
EXTT14=
EXTT15=
EXTT16=
EXTT17=
EXTT18=
PLAYORDER=
